<svg width="40" height="40" viewBox="0 0 40 40" fill="none" xmlns="http://www.w3.org/2000/svg">
<path fill-rule="evenodd" clip-rule="evenodd" d="M7.5 6.25C7.16848 6.25 6.85054 6.3817 6.61612 6.61612C6.3817 6.85054 6.25 7.16848 6.25 7.5V32.5C6.25 32.8315 6.3817 33.1495 6.61612 33.3839C6.85054 33.6183 7.16848 33.75 7.5 33.75H20.625C21.1223 33.75 21.5992 33.9475 21.9508 34.2992C22.3025 34.6508 22.5 35.1277 22.5 35.625C22.5 36.1223 22.3025 36.5992 21.9508 36.9508C21.5992 37.3025 21.1223 37.5 20.625 37.5H7.5C6.17392 37.5 4.90215 36.9732 3.96447 36.0355C3.02678 35.0979 2.5 33.8261 2.5 32.5V7.5C2.5 6.17392 3.02678 4.90215 3.96447 3.96447C4.90215 3.02678 6.17392 2.5 7.5 2.5H32.5C33.8261 2.5 35.0979 3.02678 36.0355 3.96447C36.9732 4.90215 37.5 6.17392 37.5 7.5V23.125C37.5 23.6223 37.3025 24.0992 36.9508 24.4508C36.5992 24.8025 36.1223 25 35.625 25C35.1277 25 34.6508 24.8025 34.2992 24.4508C33.9475 24.0992 33.75 23.6223 33.75 23.125V7.5C33.75 7.16848 33.6183 6.85054 33.3839 6.61612C33.1495 6.3817 32.8315 6.25 32.5 6.25H7.5ZM38.2 28.05C38.5511 28.4016 38.7484 28.8781 38.7484 29.375C38.7484 29.8719 38.5511 30.3484 38.2 30.7L31.95 36.95C31.5984 37.3011 31.1219 37.4984 30.625 37.4984C30.1281 37.4984 29.6516 37.3011 29.3 36.95L26.8 34.45C26.6158 34.2783 26.468 34.0713 26.3655 33.8413C26.2631 33.6113 26.208 33.3631 26.2035 33.1113C26.1991 32.8595 26.2454 32.6095 26.3397 32.376C26.434 32.1425 26.5744 31.9305 26.7524 31.7524C26.9305 31.5744 27.1425 31.434 27.376 31.3397C27.6095 31.2454 27.8596 31.1991 28.1113 31.2035C28.3631 31.208 28.6113 31.2631 28.8413 31.3655C29.0713 31.468 29.2783 31.6158 29.45 31.8L30.625 32.975L35.55 28.05C35.9016 27.6989 36.3781 27.5016 36.875 27.5016C37.3719 27.5016 37.8484 27.6989 38.2 28.05ZM11.875 10C11.3777 10 10.9008 10.1975 10.5492 10.5492C10.1975 10.9008 10 11.3777 10 11.875C10 12.3723 10.1975 12.8492 10.5492 13.2008C10.9008 13.5525 11.3777 13.75 11.875 13.75H28.125C28.6223 13.75 29.0992 13.5525 29.4508 13.2008C29.8025 12.8492 30 12.3723 30 11.875C30 11.3777 29.8025 10.9008 29.4508 10.5492C29.0992 10.1975 28.6223 10 28.125 10H11.875ZM10 20C10 19.5027 10.1975 19.0258 10.5492 18.6742C10.9008 18.3225 11.3777 18.125 11.875 18.125H28.125C28.6223 18.125 29.0992 18.3225 29.4508 18.6742C29.8025 19.0258 30 19.5027 30 20C30 20.4973 29.8025 20.9742 29.4508 21.3258C29.0992 21.6775 28.6223 21.875 28.125 21.875H11.875C11.3777 21.875 10.9008 21.6775 10.5492 21.3258C10.1975 20.9742 10 20.4973 10 20ZM11.875 26.25C11.3777 26.25 10.9008 26.4475 10.5492 26.7992C10.1975 27.1508 10 27.6277 10 28.125C10 28.6223 10.1975 29.0992 10.5492 29.4508C10.9008 29.8025 11.3777 30 11.875 30H20.625C21.1223 30 21.5992 29.8025 21.9508 29.4508C22.3025 29.0992 22.5 28.6223 22.5 28.125C22.5 27.6277 22.3025 27.1508 21.9508 26.7992C21.5992 26.4475 21.1223 26.25 20.625 26.25H11.875Z" fill="#8B171C"/>
</svg>
