<svg width="40" height="40" viewBox="0 0 40 40" fill="none" xmlns="http://www.w3.org/2000/svg">
<path fill-rule="evenodd" clip-rule="evenodd" d="M8.33379 14.9999C8.33379 11.9057 9.56295 8.93826 11.7509 6.75034C13.9388 4.56242 16.9063 3.33325 20.0005 3.33325C23.0946 3.33325 26.0621 4.56242 28.25 6.75034C30.438 8.93826 31.6671 11.9057 31.6671 14.9999V21.2733L34.7038 27.3466C34.8436 27.6261 34.9096 27.9367 34.8955 28.249C34.8815 28.5612 34.7879 28.8646 34.6235 29.1305C34.4592 29.3963 34.2297 29.6158 33.9567 29.7679C33.6837 29.9201 33.3763 30 33.0638 29.9999H26.4571C26.0864 31.4303 25.2512 32.6971 24.0826 33.6015C22.9139 34.5058 21.4781 34.9965 20.0005 34.9965C18.5228 34.9965 17.087 34.5058 15.9184 33.6015C14.7497 32.6971 13.9145 31.4303 13.5438 29.9999H6.93712C6.62458 30 6.31722 29.9201 6.04423 29.7679C5.77124 29.6158 5.54168 29.3963 5.37736 29.1305C5.21304 28.8646 5.11941 28.5612 5.10537 28.249C5.09132 27.9367 5.15733 27.6261 5.29712 27.3466L8.33379 21.2733V14.9999ZM17.1138 29.9999C17.4064 30.5066 17.8271 30.9274 18.3339 31.2199C18.8406 31.5124 19.4154 31.6664 20.0005 31.6664C20.5855 31.6664 21.1603 31.5124 21.667 31.2199C22.1738 30.9274 22.5945 30.5066 22.8871 29.9999H17.1138ZM20.0005 6.66659C17.7903 6.66659 15.6707 7.54456 14.1079 9.10736C12.5451 10.6702 11.6671 12.7898 11.6671 14.9999V21.2733C11.6671 21.7905 11.5467 22.3006 11.3155 22.7633L9.36545 26.6666H30.6371L28.6871 22.7633C28.4553 22.3007 28.3343 21.7906 28.3338 21.2733V14.9999C28.3338 12.7898 27.4558 10.6702 25.893 9.10736C24.3302 7.54456 22.2106 6.66659 20.0005 6.66659Z" fill="#8B171C"/>
</svg>
