<svg width="35" height="35" viewBox="0 0 35 35" fill="none" xmlns="http://www.w3.org/2000/svg">
<circle cx="17.5" cy="17.5" r="17.5" fill="#540C0F"/>
<path d="M8 15.0001V11.0001C8 10.4697 8.21071 9.96096 8.58579 9.58588C8.96086 9.21081 9.46957 9.0001 10 9.0001H13.9C14.2345 8.99682 14.5645 9.07748 14.8597 9.23472C15.1549 9.39195 15.406 9.62072 15.59 9.9001L16.4 11.1001C16.5821 11.3766 16.83 11.6036 17.1215 11.7607C17.413 11.9178 17.7389 12 18.07 12.0001H26C26.5304 12.0001 27.0391 12.2108 27.4142 12.5859C27.7893 12.961 28 13.4697 28 14.0001V24.0001C28 24.5305 27.7893 25.0392 27.4142 25.4143C27.0391 25.7894 26.5304 26.0001 26 26.0001H10C9.46957 26.0001 8.96086 25.7894 8.58579 25.4143C8.21071 25.0392 8 24.5305 8 24.0001V23.0001M8 19.0001H18" stroke="white" stroke-width="2" stroke-linecap="round" stroke-linejoin="round"/>
<path d="M15 22.0001L18 19.0001L15 16.0001" stroke="white" stroke-width="2" stroke-linecap="round" stroke-linejoin="round"/>
</svg>
