<svg width="37" height="52" viewBox="0 0 37 52" fill="none" xmlns="http://www.w3.org/2000/svg">
<path d="M18.175 22.6757C20.2292 22.6757 22.2372 22.0107 23.9452 20.7649C25.6531 19.5191 26.9843 17.7484 27.7704 15.6766C28.5565 13.6049 28.7622 11.3253 28.3614 9.12593C27.9607 6.92661 26.9715 4.9064 25.519 3.32078C24.0665 1.73515 22.2159 0.655331 20.2012 0.217858C18.1865 -0.219614 16.0983 0.00491247 14.2005 0.863046C12.3027 1.72118 10.6806 3.17438 9.53941 5.03887C8.39819 6.90337 7.78906 9.09542 7.78906 11.3378C7.78906 14.3448 8.88329 17.2286 10.831 19.3549C12.7788 21.4811 15.4205 22.6757 18.175 22.6757Z" fill="#540C0F"/>
<path d="M33.7544 51.0204C34.443 51.0204 35.1034 50.7218 35.5904 50.1902C36.0773 49.6586 36.3509 48.9377 36.3509 48.1859C36.3509 42.9237 34.4359 37.877 31.0274 34.1561C27.6188 30.4351 22.9959 28.3447 18.1754 28.3447C13.355 28.3447 8.73201 30.4351 5.32346 34.1561C1.91491 37.877 7.18299e-08 42.9237 0 48.1859C0 48.9377 0.273558 49.6586 0.760495 50.1902C1.24743 50.7218 1.90786 51.0204 2.59649 51.0204H33.7544Z" fill="#540C0F"/>
</svg>
