<svg width="11" height="11" viewBox="0 0 11 11" fill="none" xmlns="http://www.w3.org/2000/svg">
<path d="M3.93289 1.95104C4.25681 1.00312 5.56656 0.974416 5.9506 1.86492L5.9831 1.95158L6.42023 3.22992C6.5204 3.52308 6.68229 3.79136 6.89496 4.01664C7.10763 4.24193 7.36614 4.41899 7.65306 4.53587L7.7706 4.57975L9.04893 5.01633C9.99685 5.34025 10.0256 6.65 9.1356 7.03404L9.04893 7.06654L7.7706 7.50367C7.47733 7.60378 7.20895 7.76563 6.98357 7.97831C6.75819 8.19098 6.58105 8.44953 6.4641 8.7365L6.42023 8.8535L5.98364 10.1324C5.65973 11.0803 4.34998 11.109 3.96648 10.219L3.93289 10.1324L3.49631 8.85404C3.3962 8.56077 3.23434 8.29239 3.02167 8.06701C2.80899 7.84163 2.55045 7.66448 2.26348 7.54754L2.14648 7.50367L0.868143 7.06708C-0.0803156 6.74317 -0.109024 5.43342 0.781476 5.04992L0.868143 5.01633L2.14648 4.57975C2.43964 4.47957 2.70792 4.31769 2.93321 4.10502C3.15849 3.89234 3.33555 3.63383 3.45243 3.34692L3.49631 3.22992L3.93289 1.95104ZM9.2916 0.0833741C9.39294 0.0833739 9.49224 0.1118 9.57823 0.165421C9.66421 0.219042 9.73343 0.295709 9.77802 0.386707L9.80402 0.450082L9.9936 1.00583L10.5499 1.19542C10.6514 1.22992 10.7405 1.29379 10.8057 1.37894C10.8709 1.46409 10.9094 1.56668 10.9162 1.67372C10.9231 1.78075 10.898 1.88741 10.8441 1.98018C10.7903 2.07294 10.7101 2.14763 10.6138 2.19479L10.5499 2.22079L9.99414 2.41037L9.80456 2.96667C9.77 3.06819 9.70608 3.15717 9.62089 3.22233C9.53571 3.28749 9.4331 3.32589 9.32607 3.33268C9.21904 3.33947 9.11241 3.31433 9.01968 3.26045C8.92694 3.20658 8.85229 3.12639 8.80518 3.03004L8.77919 2.96667L8.5896 2.41092L8.03331 2.22133C7.93176 2.18683 7.84273 2.12296 7.77752 2.03781C7.71231 1.95266 7.67384 1.85006 7.66699 1.74303C7.66015 1.63599 7.68523 1.52934 7.73907 1.43657C7.7929 1.34381 7.87306 1.26912 7.96939 1.22196L8.03331 1.19596L8.58906 1.00637L8.77864 0.450082C8.81517 0.343063 8.88427 0.250158 8.97626 0.184394C9.06825 0.118631 9.17852 0.0833062 9.2916 0.0833741Z" fill="#B33F44"/>
</svg>
